<svg version="1.1" id="Layer_1" xmlns:x="ns_extend;" xmlns:i="ns_ai;" xmlns:graph="ns_graphs;" xmlns="http://www.w3.org/2000/svg" xmlns:xlink="http://www.w3.org/1999/xlink" x="0px" y="0px" viewBox="0 0 92.3 50" style="enable-background:new 0 0 92.3 50;" xml:space="preserve">
 <style type="text/css">
  .st0{fill-rule:evenodd;clip-rule:evenodd;fill:#0B41CD;}
 </style>
 <metadata>
  <sfw xmlns="ns_sfw;">
   <slices>
   </slices>
   <sliceSourceBounds bottomLeftOrigin="true" height="50" width="92.3" x="134.8" y="-214.4">
   </sliceSourceBounds>
  </sfw>
 </metadata>
 <g>
  <path class="st0" d="M20.8,50h50.9l20.6-25L71.7,0H20.8L0,25L20.8,50z M70.5,47.4H21.8L3.3,24.9L21.9,2.6h48.6l18.6,22.6L70.5,47.3
		V47.4z M21.8,24.5v8.8H19V13.8h5.5c1.5,0,2.6,0.4,3.6,1.3c0.8,1,1.3,2.2,1.3,3.8c0,1-0.2,2-0.8,2.8c-0.4,0.8-1,1.3-1.8,1.7
		c0.4,0.1,0.8,0.5,1.2,0.9l0.5,1.9l0.8,7.1h-2.8l-0.6-6.8c-0.1-0.6-0.3-1.1-0.6-1.4c-0.3-0.3-0.6-0.5-1.3-0.5h-2V24.5z M21.8,16.3
		v5.6h2.6c0.6,0,1.3-0.1,1.5-0.6c0.5-0.5,0.6-1.3,0.6-2.2c0-1-0.3-1.7-0.6-2.2c-0.3-0.4-0.9-0.6-1.5-0.6H21.8z M38.5,32.9
		c-0.6,0.4-1.5,0.6-2.6,0.6s-1.8-0.3-2.6-0.8c-0.8-0.4-1.4-1.2-1.8-2c-0.5-0.8-0.6-1.9-0.6-3.1v-2.6c0-1.3,0.1-2.3,0.6-3.2
		c0.8-1.7,2.5-2.7,4.4-2.7c1,0,1.8,0.3,2.6,0.8s1.4,1.2,1.8,2c0.5,0.9,0.6,1.9,0.6,3.1v2.7c0,1.3-0.1,2.3-0.6,3.1
		C39.9,31.8,39.2,32.6,38.5,32.9L38.5,32.9z M34.1,30.3c0.5,0.5,1,0.8,1.8,0.8c0.8,0,1.3-0.3,1.8-0.8c0.4-0.6,0.6-1.4,0.6-2.6v-2.8
		c0.1-0.9-0.2-1.7-0.6-2.4c-0.5-0.5-1-0.8-1.8-0.8c-0.8,0-1.3,0.3-1.8,0.8c-0.5,0.7-0.7,1.6-0.6,2.4v2.9
		C33.5,28.8,33.7,29.6,34.1,30.3L34.1,30.3z M51.4,32.4c-0.8,0.8-1.9,1.3-3.2,1.3c-1.5,0-2.8-0.6-3.7-1.7c-0.9-1.2-1.4-2.8-1.3-4.4
		v-2.6c-0.1-1.6,0.3-3.1,1.3-4.4c1-1.1,2.2-1.7,3.8-1.7c1.3,0,2.4,0.4,3.2,1.3c0.8,0.6,1.3,1.8,1.5,3.2l-2.6,0.6
		c-0.3-1.8-1-2.6-2.3-2.6c-0.8,0-1.3,0.3-1.8,0.8c-0.4,0.6-0.6,1.4-0.6,2.4v2.9c0,1,0.3,1.8,0.6,2.4c0.5,0.5,1,0.8,1.8,0.8
		c0.6,0,1.2-0.1,1.5-0.6c0.4-0.4,0.6-1,0.8-1.9l2.6,0.6C52.8,30.5,52.3,31.7,51.4,32.4L51.4,32.4z M57.7,24.1v9.2h-2.6V13.8h2.6v6.7
		c0.3-0.4,0.6-0.6,1.3-1c0.6-0.3,1.2-0.4,1.8-0.4c1.3,0,2.2,0.4,2.8,1.3c0.6,0.6,1,1.8,1,3.2v9.7h-2.6v-9.2c0-0.8-0.3-1.4-0.6-1.9
		c-0.4-0.4-0.9-0.6-1.5-0.6s-1.3,0.3-1.5,0.6c-0.5,0.6-0.8,1.4-0.6,2.2V24.1z M75.1,20.6c0.8,1,1.3,2.6,1.3,4.2v2h-7.2v1.2
		c0,1,0.3,1.8,0.6,2.4c0.5,0.5,1,0.8,1.7,0.8c0.6,0,1.1-0.1,1.5-0.6c0.4-0.4,0.6-0.9,0.8-1.7l2.3,0.5c-0.1,1.3-0.6,2.3-1.4,3.1
		c-0.9,0.8-1.9,1.2-3.2,1.2c-1.5,0-2.6-0.5-3.6-1.7c-0.9-1-1.3-2.6-1.3-4.4v-2.6c0-1.3,0.1-2.2,0.6-3.2c0.4-0.8,1-1.5,1.7-2
		c0.8-0.4,1.7-0.6,2.6-0.6c1.5,0,2.6,0.5,3.6,1.5V20.6z M73.3,22.3c-0.5-0.6-1-0.9-1.8-0.9c-0.6,0-1.3,0.3-1.5,0.9
		c-0.5,0.5-0.6,1.3-0.6,2.3V25h4.5v-0.5C73.9,23.7,73.7,23,73.3,22.3L73.3,22.3z M73.3,22.3">
  </path>
 </g>
</svg>